<mxfile host="app.diagrams.net" modified="2021-06-29T12:01:34.540Z" agent="5.0 (Macintosh; Intel Mac OS X 10_14_6) AppleWebKit/605.1.15 (KHTML, like Gecko) Version/14.1 Safari/605.1.15" etag="-T3DpKQcTiRdvfWy6Gdf" version="14.8.1" type="github" pages="2">
  <diagram name="Page-1" id="e7e014a7-5840-1c2e-5031-d8a46d1fe8dd">
    <mxGraphModel dx="777" dy="578" grid="1" gridSize="10" guides="1" tooltips="1" connect="1" arrows="1" fold="1" page="1" pageScale="1" pageWidth="1169" pageHeight="826" background="none" math="0" shadow="0">
      <root>
        <mxCell id="0" />
        <mxCell id="1" parent="0" />
        <mxCell id="2" value="企業會員" style="swimlane;whiteSpace=wrap" parent="1" vertex="1">
          <mxGeometry x="164.5" y="128" width="385.5" height="662" as="geometry" />
        </mxCell>
        <mxCell id="5" value="" style="ellipse;shape=startState;fillColor=#000000;strokeColor=#ff0000;" parent="2" vertex="1">
          <mxGeometry x="100" y="40" width="30" height="30" as="geometry" />
        </mxCell>
        <mxCell id="6" value="" style="edgeStyle=elbowEdgeStyle;elbow=horizontal;verticalAlign=bottom;endArrow=open;endSize=8;strokeColor=#FF0000;endFill=1;rounded=0" parent="2" source="5" target="7" edge="1">
          <mxGeometry x="100" y="40" as="geometry">
            <mxPoint x="115" y="110" as="targetPoint" />
          </mxGeometry>
        </mxCell>
        <mxCell id="7" value="登入" style="" parent="2" vertex="1">
          <mxGeometry x="60" y="110" width="110" height="50" as="geometry" />
        </mxCell>
        <mxCell id="9" value="" style="endArrow=open;strokeColor=#FF0000;endFill=1;rounded=0" parent="2" source="7" edge="1">
          <mxGeometry relative="1" as="geometry">
            <mxPoint x="114.5" y="192" as="targetPoint" />
          </mxGeometry>
        </mxCell>
        <mxCell id="11" value="" style="endArrow=open;strokeColor=#FF0000;endFill=1;rounded=0;exitX=0.505;exitY=1.012;exitDx=0;exitDy=0;exitPerimeter=0;entryX=0.5;entryY=0;entryDx=0;entryDy=0;" parent="2" source="Wlnk1DyzsGyQfmctNri--41" target="Wlnk1DyzsGyQfmctNri--110" edge="1">
          <mxGeometry relative="1" as="geometry">
            <mxPoint x="115" y="270" as="sourcePoint" />
            <mxPoint x="115.09138762977034" y="324.9999999999999" as="targetPoint" />
          </mxGeometry>
        </mxCell>
        <mxCell id="Wlnk1DyzsGyQfmctNri--54" value="" style="edgeStyle=orthogonalEdgeStyle;rounded=0;orthogonalLoop=1;jettySize=auto;html=1;strokeColor=#B3B3B3;" parent="2" source="Wlnk1DyzsGyQfmctNri--41" target="Wlnk1DyzsGyQfmctNri--52" edge="1">
          <mxGeometry relative="1" as="geometry" />
        </mxCell>
        <mxCell id="Wlnk1DyzsGyQfmctNri--41" value="有帳號？" style="html=1;whiteSpace=wrap;aspect=fixed;shape=isoRectangle;" parent="2" vertex="1">
          <mxGeometry x="75" y="192" width="80" height="48" as="geometry" />
        </mxCell>
        <UserObject label="no" placeholders="1" name="Variable" id="Wlnk1DyzsGyQfmctNri--49">
          <mxCell style="text;html=1;strokeColor=none;fillColor=none;align=center;verticalAlign=middle;whiteSpace=wrap;overflow=hidden;" parent="2" vertex="1">
            <mxGeometry x="157" y="216" width="30" height="24" as="geometry" />
          </mxCell>
        </UserObject>
        <mxCell id="Wlnk1DyzsGyQfmctNri--52" value="註冊系統" style="rounded=0;whiteSpace=wrap;html=1;" parent="2" vertex="1">
          <mxGeometry x="195.5" y="196" width="70" height="40" as="geometry" />
        </mxCell>
        <mxCell id="Wlnk1DyzsGyQfmctNri--110" value="會員中心" style="rounded=0;whiteSpace=wrap;html=1;" parent="2" vertex="1">
          <mxGeometry x="75" y="302" width="80" height="30" as="geometry" />
        </mxCell>
        <UserObject label="yes" placeholders="1" name="Variable" id="Wlnk1DyzsGyQfmctNri--107">
          <mxCell style="text;html=1;strokeColor=none;fillColor=none;align=center;verticalAlign=middle;whiteSpace=wrap;overflow=hidden;" parent="2" vertex="1">
            <mxGeometry x="115.5" y="252" width="30" height="24" as="geometry" />
          </mxCell>
        </UserObject>
        <mxCell id="Wlnk1DyzsGyQfmctNri--120" value="基本資料管理" style="rounded=0;whiteSpace=wrap;html=1;" parent="2" vertex="1">
          <mxGeometry x="185.5" y="332" width="80" height="30" as="geometry" />
        </mxCell>
        <mxCell id="Wlnk1DyzsGyQfmctNri--122" value="商品管理" style="rounded=0;whiteSpace=wrap;html=1;" parent="2" vertex="1">
          <mxGeometry x="49.99999999999999" y="492" width="80" height="30" as="geometry" />
        </mxCell>
        <UserObject label="登出" placeholders="1" name="Variable" id="Wlnk1DyzsGyQfmctNri--126">
          <mxCell style="text;html=1;strokeColor=none;fillColor=none;align=center;verticalAlign=middle;whiteSpace=wrap;overflow=hidden;" parent="2" vertex="1">
            <mxGeometry x="5.5" y="212" width="30" height="24" as="geometry" />
          </mxCell>
        </UserObject>
        <mxCell id="Wlnk1DyzsGyQfmctNri--121" value="訂單管理" style="rounded=0;whiteSpace=wrap;html=1;" parent="2" vertex="1">
          <mxGeometry x="185.5" y="462" width="80" height="30" as="geometry" />
        </mxCell>
        <mxCell id="Wlnk1DyzsGyQfmctNri--127" value="繼續？" style="html=1;whiteSpace=wrap;aspect=fixed;shape=isoRectangle;" parent="2" vertex="1">
          <mxGeometry x="91.66" y="352" width="46.67" height="28" as="geometry" />
        </mxCell>
        <UserObject label="no" placeholders="1" name="Variable" id="Wlnk1DyzsGyQfmctNri--131">
          <mxCell style="text;html=1;strokeColor=none;fillColor=none;align=center;verticalAlign=middle;whiteSpace=wrap;overflow=hidden;" parent="2" vertex="1">
            <mxGeometry x="20" y="342" width="30" height="24" as="geometry" />
          </mxCell>
        </UserObject>
        <mxCell id="Wlnk1DyzsGyQfmctNri--128" value="" style="edgeStyle=orthogonalEdgeStyle;rounded=0;orthogonalLoop=1;jettySize=auto;html=1;" parent="2" source="Wlnk1DyzsGyQfmctNri--110" edge="1">
          <mxGeometry relative="1" as="geometry">
            <mxPoint x="117.5" y="352" as="targetPoint" />
            <Array as="points">
              <mxPoint x="117.5" y="342" />
            </Array>
          </mxGeometry>
        </mxCell>
        <mxCell id="tgVnPNI4uBaY5m6D6lXT-44" style="edgeStyle=orthogonalEdgeStyle;rounded=0;orthogonalLoop=1;jettySize=auto;html=1;exitX=0.5;exitY=0;exitDx=0;exitDy=0;" edge="1" parent="2" source="Wlnk1DyzsGyQfmctNri--120">
          <mxGeometry relative="1" as="geometry">
            <mxPoint x="415.5" y="312" as="targetPoint" />
            <Array as="points">
              <mxPoint x="226" y="312" />
              <mxPoint x="284" y="312" />
            </Array>
          </mxGeometry>
        </mxCell>
        <mxCell id="k1zmmnMi6JdyLgyqYY6V-65" value="刪修" style="rounded=1;whiteSpace=wrap;html=1;" vertex="1" parent="2">
          <mxGeometry x="315.5" y="467" width="40" height="20" as="geometry" />
        </mxCell>
        <mxCell id="k1zmmnMi6JdyLgyqYY6V-67" value="新增" style="rounded=1;whiteSpace=wrap;html=1;" vertex="1" parent="2">
          <mxGeometry x="325.5" y="206" width="40" height="20" as="geometry" />
        </mxCell>
        <mxCell id="3" value="資料庫" style="swimlane;whiteSpace=wrap" parent="1" vertex="1">
          <mxGeometry x="550" y="128" width="270" height="662" as="geometry" />
        </mxCell>
        <mxCell id="Wlnk1DyzsGyQfmctNri--55" value="廠商申請表" style="shape=document;whiteSpace=wrap;html=1;boundedLbl=1;rounded=0;" parent="3" vertex="1">
          <mxGeometry x="40.5" y="190" width="68.08" height="52" as="geometry" />
        </mxCell>
        <mxCell id="Wlnk1DyzsGyQfmctNri--64" value="廠商資料表" style="shape=document;whiteSpace=wrap;html=1;boundedLbl=1;rounded=0;" parent="3" vertex="1">
          <mxGeometry x="127.42000000000004" y="102" width="68.08" height="52" as="geometry" />
        </mxCell>
        <mxCell id="tgVnPNI4uBaY5m6D6lXT-91" value="廠商資料表" style="shape=document;whiteSpace=wrap;html=1;boundedLbl=1;rounded=0;" vertex="1" parent="3">
          <mxGeometry x="30.000000000000114" y="292" width="68.08" height="52" as="geometry" />
        </mxCell>
        <mxCell id="k1zmmnMi6JdyLgyqYY6V-61" value="" style="edgeStyle=orthogonalEdgeStyle;rounded=0;orthogonalLoop=1;jettySize=auto;html=1;strokeColor=#B3B3B3;exitX=0.532;exitY=0.814;exitDx=0;exitDy=0;exitPerimeter=0;" edge="1" parent="3" source="tgVnPNI4uBaY5m6D6lXT-94">
          <mxGeometry relative="1" as="geometry">
            <mxPoint x="222.0999999999999" y="474" as="sourcePoint" />
            <mxPoint x="227.03999999999996" y="512" as="targetPoint" />
          </mxGeometry>
        </mxCell>
        <mxCell id="tgVnPNI4uBaY5m6D6lXT-94" value="廠商資料表&lt;br&gt;(已註銷)" style="shape=document;whiteSpace=wrap;html=1;boundedLbl=1;rounded=0;" vertex="1" parent="3">
          <mxGeometry x="190.00000000000006" y="422" width="68.08" height="52" as="geometry" />
        </mxCell>
        <mxCell id="tgVnPNI4uBaY5m6D6lXT-96" value="" style="whiteSpace=wrap;strokeColor=#FF0000;fillColor=#FF0000;rotation=0;" vertex="1" parent="3">
          <mxGeometry x="127.42" y="292" width="12.58" height="51" as="geometry" />
        </mxCell>
        <mxCell id="tgVnPNI4uBaY5m6D6lXT-95" style="edgeStyle=orthogonalEdgeStyle;rounded=0;orthogonalLoop=1;jettySize=auto;html=1;entryX=0;entryY=0.5;entryDx=0;entryDy=0;" edge="1" parent="3" source="tgVnPNI4uBaY5m6D6lXT-91" target="tgVnPNI4uBaY5m6D6lXT-96">
          <mxGeometry relative="1" as="geometry">
            <mxPoint x="120" y="318" as="targetPoint" />
          </mxGeometry>
        </mxCell>
        <mxCell id="tgVnPNI4uBaY5m6D6lXT-108" value="修改" style="rounded=1;whiteSpace=wrap;html=1;" vertex="1" parent="3">
          <mxGeometry x="204.04" y="352" width="40" height="20" as="geometry" />
        </mxCell>
        <mxCell id="tgVnPNI4uBaY5m6D6lXT-109" value="刪除" style="rounded=1;whiteSpace=wrap;html=1;" vertex="1" parent="3">
          <mxGeometry x="221.08000000000004" y="296" width="40" height="20" as="geometry" />
        </mxCell>
        <mxCell id="k1zmmnMi6JdyLgyqYY6V-55" value="" style="whiteSpace=wrap;strokeColor=#FF0000;fillColor=#FF0000;rotation=0;" vertex="1" parent="3">
          <mxGeometry x="85.5" y="377" width="12.58" height="51" as="geometry" />
        </mxCell>
        <mxCell id="k1zmmnMi6JdyLgyqYY6V-59" value="" style="ellipse;shape=endState;fillColor=#000000;strokeColor=#ff0000" vertex="1" parent="3">
          <mxGeometry x="214.0399999999999" y="512" width="30" height="30" as="geometry" />
        </mxCell>
        <mxCell id="k1zmmnMi6JdyLgyqYY6V-63" value="訂單資料" style="shape=document;whiteSpace=wrap;html=1;boundedLbl=1;rounded=0;" vertex="1" parent="3">
          <mxGeometry x="50.00000000000007" y="451" width="68.08" height="52" as="geometry" />
        </mxCell>
        <mxCell id="Wlnk1DyzsGyQfmctNri--56" value="" style="edgeStyle=orthogonalEdgeStyle;rounded=0;orthogonalLoop=1;jettySize=auto;html=1;" parent="1" source="Wlnk1DyzsGyQfmctNri--52" edge="1">
          <mxGeometry relative="1" as="geometry">
            <mxPoint x="490" y="344" as="targetPoint" />
          </mxGeometry>
        </mxCell>
        <mxCell id="Wlnk1DyzsGyQfmctNri--69" style="edgeStyle=orthogonalEdgeStyle;rounded=0;orthogonalLoop=1;jettySize=auto;html=1;entryX=1;entryY=0.5;entryDx=0;entryDy=0;" parent="1" source="Wlnk1DyzsGyQfmctNri--64" target="7" edge="1">
          <mxGeometry relative="1" as="geometry">
            <Array as="points">
              <mxPoint x="520" y="263" />
              <mxPoint x="520" y="263" />
            </Array>
          </mxGeometry>
        </mxCell>
        <mxCell id="Wlnk1DyzsGyQfmctNri--70" style="edgeStyle=orthogonalEdgeStyle;rounded=0;orthogonalLoop=1;jettySize=auto;html=1;entryX=0.5;entryY=1;entryDx=0;entryDy=0;strokeColor=#B3B3B3;" parent="1" source="Wlnk1DyzsGyQfmctNri--67" target="Wlnk1DyzsGyQfmctNri--52" edge="1">
          <mxGeometry relative="1" as="geometry">
            <mxPoint x="510" y="410" as="targetPoint" />
            <Array as="points">
              <mxPoint x="998" y="400" />
              <mxPoint x="395" y="400" />
            </Array>
          </mxGeometry>
        </mxCell>
        <UserObject label="no" placeholders="1" name="Variable" id="Wlnk1DyzsGyQfmctNri--106">
          <mxCell style="text;html=1;strokeColor=none;fillColor=none;align=center;verticalAlign=middle;whiteSpace=wrap;overflow=hidden;" parent="1" vertex="1">
            <mxGeometry x="560" y="380" width="30" height="24" as="geometry" />
          </mxCell>
        </UserObject>
        <mxCell id="Wlnk1DyzsGyQfmctNri--115" style="edgeStyle=orthogonalEdgeStyle;rounded=0;orthogonalLoop=1;jettySize=auto;html=1;exitX=1;exitY=0.75;exitDx=0;exitDy=0;entryX=0.5;entryY=0;entryDx=0;entryDy=0;" parent="1" source="34" target="Wlnk1DyzsGyQfmctNri--122" edge="1">
          <mxGeometry relative="1" as="geometry">
            <mxPoint x="220" y="567" as="targetPoint" />
          </mxGeometry>
        </mxCell>
        <mxCell id="Wlnk1DyzsGyQfmctNri--116" style="edgeStyle=orthogonalEdgeStyle;rounded=0;orthogonalLoop=1;jettySize=auto;html=1;exitX=1;exitY=0.5;exitDx=0;exitDy=0;entryX=0;entryY=0.25;entryDx=0;entryDy=0;" parent="1" source="34" target="Wlnk1DyzsGyQfmctNri--121" edge="1">
          <mxGeometry relative="1" as="geometry">
            <mxPoint x="282.0758620689656" y="587" as="targetPoint" />
            <Array as="points">
              <mxPoint x="282" y="598" />
              <mxPoint x="350" y="598" />
            </Array>
          </mxGeometry>
        </mxCell>
        <mxCell id="Wlnk1DyzsGyQfmctNri--118" style="edgeStyle=orthogonalEdgeStyle;rounded=0;orthogonalLoop=1;jettySize=auto;html=1;exitX=1;exitY=0.25;exitDx=0;exitDy=0;" parent="1" source="34" edge="1">
          <mxGeometry relative="1" as="geometry">
            <mxPoint x="390" y="493" as="targetPoint" />
          </mxGeometry>
        </mxCell>
        <mxCell id="34" value="" style="whiteSpace=wrap;strokeColor=#FF0000;fillColor=#FF0000;rotation=90;" parent="1" vertex="1">
          <mxGeometry x="276.8" y="487" width="11" height="89" as="geometry" />
        </mxCell>
        <mxCell id="Wlnk1DyzsGyQfmctNri--124" value="" style="ellipse;shape=endState;fillColor=#000000;strokeColor=#ff0000" parent="1" vertex="1">
          <mxGeometry x="175" y="360" width="30" height="30" as="geometry" />
        </mxCell>
        <mxCell id="Wlnk1DyzsGyQfmctNri--129" value="" style="edgeStyle=orthogonalEdgeStyle;rounded=0;orthogonalLoop=1;jettySize=auto;html=1;strokeColor=#FF0000;exitX=0.51;exitY=0.972;exitDx=0;exitDy=0;exitPerimeter=0;" parent="1" source="Wlnk1DyzsGyQfmctNri--127" edge="1">
          <mxGeometry relative="1" as="geometry">
            <mxPoint x="282" y="526" as="targetPoint" />
            <Array as="points">
              <mxPoint x="282" y="507" />
            </Array>
          </mxGeometry>
        </mxCell>
        <mxCell id="Wlnk1DyzsGyQfmctNri--130" style="edgeStyle=orthogonalEdgeStyle;rounded=0;orthogonalLoop=1;jettySize=auto;html=1;entryX=0.5;entryY=1;entryDx=0;entryDy=0;strokeColor=#B3B3B3;" parent="1" source="Wlnk1DyzsGyQfmctNri--127" target="Wlnk1DyzsGyQfmctNri--124" edge="1">
          <mxGeometry relative="1" as="geometry" />
        </mxCell>
        <mxCell id="Wlnk1DyzsGyQfmctNri--170" value="平台" style="swimlane;whiteSpace=wrap;fillColor=#ffe6cc;strokeColor=#d79b00;" parent="1" vertex="1">
          <mxGeometry x="820" y="128" width="280" height="662" as="geometry" />
        </mxCell>
        <mxCell id="Wlnk1DyzsGyQfmctNri--67" value="通過？" style="html=1;whiteSpace=wrap;aspect=fixed;shape=isoRectangle;" parent="Wlnk1DyzsGyQfmctNri--170" vertex="1">
          <mxGeometry x="150" y="142" width="55" height="33" as="geometry" />
        </mxCell>
        <mxCell id="tgVnPNI4uBaY5m6D6lXT-37" style="edgeStyle=orthogonalEdgeStyle;rounded=0;orthogonalLoop=1;jettySize=auto;html=1;entryX=0.018;entryY=0.521;entryDx=0;entryDy=0;entryPerimeter=0;" edge="1" parent="Wlnk1DyzsGyQfmctNri--170" source="tgVnPNI4uBaY5m6D6lXT-36" target="Wlnk1DyzsGyQfmctNri--67">
          <mxGeometry relative="1" as="geometry" />
        </mxCell>
        <mxCell id="tgVnPNI4uBaY5m6D6lXT-36" value="人工審核" style="rounded=0;whiteSpace=wrap;html=1;" vertex="1" parent="Wlnk1DyzsGyQfmctNri--170">
          <mxGeometry x="40" y="154" width="70" height="30" as="geometry" />
        </mxCell>
        <UserObject label="yes" placeholders="1" name="Variable" id="Wlnk1DyzsGyQfmctNri--82">
          <mxCell style="text;html=1;strokeColor=none;fillColor=none;align=center;verticalAlign=middle;whiteSpace=wrap;overflow=hidden;" parent="Wlnk1DyzsGyQfmctNri--170" vertex="1">
            <mxGeometry x="40" y="102" width="30" height="24" as="geometry" />
          </mxCell>
        </UserObject>
        <mxCell id="k1zmmnMi6JdyLgyqYY6V-44" value="" style="edgeStyle=orthogonalEdgeStyle;rounded=0;orthogonalLoop=1;jettySize=auto;html=1;strokeColor=#000000;" edge="1" parent="Wlnk1DyzsGyQfmctNri--170" source="k1zmmnMi6JdyLgyqYY6V-35" target="k1zmmnMi6JdyLgyqYY6V-43">
          <mxGeometry relative="1" as="geometry" />
        </mxCell>
        <mxCell id="k1zmmnMi6JdyLgyqYY6V-35" value="人工審核" style="rounded=0;whiteSpace=wrap;html=1;" vertex="1" parent="Wlnk1DyzsGyQfmctNri--170">
          <mxGeometry x="40" y="292" width="70" height="30" as="geometry" />
        </mxCell>
        <mxCell id="k1zmmnMi6JdyLgyqYY6V-43" value="成功" style="rhombus;whiteSpace=wrap;html=1;rounded=0;" vertex="1" parent="Wlnk1DyzsGyQfmctNri--170">
          <mxGeometry x="48.75" y="362" width="52.5" height="28" as="geometry" />
        </mxCell>
        <mxCell id="Wlnk1DyzsGyQfmctNri--65" value="" style="edgeStyle=orthogonalEdgeStyle;rounded=0;orthogonalLoop=1;jettySize=auto;html=1;" parent="1" source="Wlnk1DyzsGyQfmctNri--55" edge="1">
          <mxGeometry relative="1" as="geometry">
            <mxPoint x="860" y="294" as="targetPoint" />
            <Array as="points">
              <mxPoint x="680" y="344" />
              <mxPoint x="680" y="294" />
            </Array>
          </mxGeometry>
        </mxCell>
        <mxCell id="Wlnk1DyzsGyQfmctNri--68" value="" style="edgeStyle=orthogonalEdgeStyle;rounded=0;orthogonalLoop=1;jettySize=auto;html=1;entryX=1;entryY=0.5;entryDx=0;entryDy=0;strokeColor=#FF0000;" parent="1" source="Wlnk1DyzsGyQfmctNri--67" target="Wlnk1DyzsGyQfmctNri--64" edge="1">
          <mxGeometry relative="1" as="geometry">
            <mxPoint x="613" y="270" as="targetPoint" />
            <Array as="points">
              <mxPoint x="998" y="256" />
            </Array>
          </mxGeometry>
        </mxCell>
        <mxCell id="tgVnPNI4uBaY5m6D6lXT-97" style="edgeStyle=orthogonalEdgeStyle;rounded=0;orthogonalLoop=1;jettySize=auto;html=1;exitX=1;exitY=0.75;exitDx=0;exitDy=0;strokeColor=#000000;" edge="1" parent="1" source="tgVnPNI4uBaY5m6D6lXT-96">
          <mxGeometry relative="1" as="geometry">
            <mxPoint x="750" y="490" as="targetPoint" />
            <Array as="points">
              <mxPoint x="720" y="458" />
              <mxPoint x="720" y="490" />
              <mxPoint x="750" y="490" />
            </Array>
          </mxGeometry>
        </mxCell>
        <mxCell id="tgVnPNI4uBaY5m6D6lXT-98" style="edgeStyle=orthogonalEdgeStyle;rounded=0;orthogonalLoop=1;jettySize=auto;html=1;exitX=1;exitY=0.25;exitDx=0;exitDy=0;strokeColor=#000000;" edge="1" parent="1" source="tgVnPNI4uBaY5m6D6lXT-96">
          <mxGeometry relative="1" as="geometry">
            <mxPoint x="770" y="432.8571428571429" as="targetPoint" />
          </mxGeometry>
        </mxCell>
        <mxCell id="k1zmmnMi6JdyLgyqYY6V-42" style="edgeStyle=orthogonalEdgeStyle;rounded=0;orthogonalLoop=1;jettySize=auto;html=1;exitX=0.5;exitY=1;exitDx=0;exitDy=0;strokeColor=#000000;" edge="1" parent="1" source="tgVnPNI4uBaY5m6D6lXT-108">
          <mxGeometry relative="1" as="geometry">
            <mxPoint x="650" y="520" as="targetPoint" />
            <Array as="points">
              <mxPoint x="774" y="520" />
            </Array>
          </mxGeometry>
        </mxCell>
        <mxCell id="k1zmmnMi6JdyLgyqYY6V-53" style="edgeStyle=orthogonalEdgeStyle;rounded=0;orthogonalLoop=1;jettySize=auto;html=1;strokeColor=#FF0000;" edge="1" parent="1" source="k1zmmnMi6JdyLgyqYY6V-43">
          <mxGeometry relative="1" as="geometry">
            <mxPoint x="810" y="570" as="targetPoint" />
            <Array as="points">
              <mxPoint x="895" y="570" />
              <mxPoint x="895" y="570" />
            </Array>
          </mxGeometry>
        </mxCell>
        <mxCell id="k1zmmnMi6JdyLgyqYY6V-54" style="edgeStyle=orthogonalEdgeStyle;rounded=0;orthogonalLoop=1;jettySize=auto;html=1;exitX=0;exitY=0.5;exitDx=0;exitDy=0;strokeColor=#B3B3B3;" edge="1" parent="1" source="k1zmmnMi6JdyLgyqYY6V-43">
          <mxGeometry relative="1" as="geometry">
            <mxPoint x="650" y="540" as="targetPoint" />
            <Array as="points">
              <mxPoint x="869" y="540" />
            </Array>
          </mxGeometry>
        </mxCell>
        <mxCell id="k1zmmnMi6JdyLgyqYY6V-57" style="edgeStyle=orthogonalEdgeStyle;rounded=0;orthogonalLoop=1;jettySize=auto;html=1;exitX=0;exitY=0.25;exitDx=0;exitDy=0;entryX=1;entryY=0.5;entryDx=0;entryDy=0;strokeColor=#000000;" edge="1" parent="1" source="k1zmmnMi6JdyLgyqYY6V-55" target="Wlnk1DyzsGyQfmctNri--120">
          <mxGeometry relative="1" as="geometry" />
        </mxCell>
        <mxCell id="k1zmmnMi6JdyLgyqYY6V-58" value="" style="edgeStyle=orthogonalEdgeStyle;rounded=0;orthogonalLoop=1;jettySize=auto;html=1;strokeColor=#000000;" edge="1" parent="1" source="tgVnPNI4uBaY5m6D6lXT-109" target="k1zmmnMi6JdyLgyqYY6V-35">
          <mxGeometry relative="1" as="geometry">
            <Array as="points">
              <mxPoint x="820" y="435" />
              <mxPoint x="820" y="435" />
            </Array>
          </mxGeometry>
        </mxCell>
        <mxCell id="k1zmmnMi6JdyLgyqYY6V-64" style="edgeStyle=orthogonalEdgeStyle;rounded=0;orthogonalLoop=1;jettySize=auto;html=1;" edge="1" parent="1" source="Wlnk1DyzsGyQfmctNri--121">
          <mxGeometry relative="1" as="geometry">
            <mxPoint x="480" y="605" as="targetPoint" />
          </mxGeometry>
        </mxCell>
        <mxCell id="k1zmmnMi6JdyLgyqYY6V-66" value="" style="edgeStyle=orthogonalEdgeStyle;rounded=0;orthogonalLoop=1;jettySize=auto;html=1;strokeColor=#000000;" edge="1" parent="1" source="k1zmmnMi6JdyLgyqYY6V-65" target="k1zmmnMi6JdyLgyqYY6V-63">
          <mxGeometry relative="1" as="geometry" />
        </mxCell>
        <mxCell id="k1zmmnMi6JdyLgyqYY6V-68" value="" style="edgeStyle=orthogonalEdgeStyle;rounded=0;orthogonalLoop=1;jettySize=auto;html=1;strokeColor=#000000;entryX=0;entryY=0.5;entryDx=0;entryDy=0;" edge="1" parent="1" source="k1zmmnMi6JdyLgyqYY6V-67" target="Wlnk1DyzsGyQfmctNri--55">
          <mxGeometry relative="1" as="geometry" />
        </mxCell>
        <mxCell id="k1zmmnMi6JdyLgyqYY6V-69" style="edgeStyle=orthogonalEdgeStyle;rounded=0;orthogonalLoop=1;jettySize=auto;html=1;exitX=0.5;exitY=0;exitDx=0;exitDy=0;strokeColor=#000000;entryX=0.675;entryY=0;entryDx=0;entryDy=0;entryPerimeter=0;" edge="1" parent="1" source="k1zmmnMi6JdyLgyqYY6V-63" target="Wlnk1DyzsGyQfmctNri--121">
          <mxGeometry relative="1" as="geometry">
            <mxPoint x="410" y="550" as="targetPoint" />
          </mxGeometry>
        </mxCell>
      </root>
    </mxGraphModel>
  </diagram>
  <diagram id="ljvhe8rJgVV9nau7u8wd" name="Page-2">
    <mxGraphModel dx="777" dy="578" grid="1" gridSize="10" guides="1" tooltips="1" connect="1" arrows="1" fold="1" page="1" pageScale="1" pageWidth="827" pageHeight="1169" math="0" shadow="0">
      <root>
        <mxCell id="XJFokynB_RMT-DKPA-r4-0" />
        <mxCell id="XJFokynB_RMT-DKPA-r4-1" parent="XJFokynB_RMT-DKPA-r4-0" />
      </root>
    </mxGraphModel>
  </diagram>
</mxfile>
